<?xml version="1.0" standalone="no"?>
<!DOCTYPE svg PUBLIC "-//W3C//DTD SVG 20010904//EN"
 "http://www.w3.org/TR/2001/REC-SVG-20010904/DTD/svg10.dtd">
<svg version="1.0" xmlns="http://www.w3.org/2000/svg"
 width="70.000000pt" height="70.000000pt" viewBox="0 0 70.000000 70.000000"
 preserveAspectRatio="xMidYMid meet">
<metadata>
Created by potrace 1.14, written by Peter Selinger 2001-2017
</metadata>
<g transform="translate(0.000000,70.000000) scale(0.100000,-0.100000)"
fill="#000000" stroke="none">
<path d="M171 594 c-36 -25 -51 -75 -51 -164 l0 -80 -42 -1 c-66 -2 -71 -3
-75 -16 -5 -13 0 -14 72 -17 l40 -1 2 -45 c3 -79 13 -127 31 -147 44 -51 116
-53 163 -7 29 30 37 62 39 175 0 26 1 26 70 26 39 0 70 -3 71 -6 1 -3 2 -54 3
-113 1 -59 5 -110 9 -114 16 -16 21 13 22 119 l0 112 70 2 c98 2 95 1 95 18 0
11 -12 14 -47 13 -27 0 -65 0 -85 1 l-36 1 19 38 c20 39 75 161 90 200 7 17 5
22 -9 22 -11 0 -25 -19 -41 -58 -13 -31 -34 -81 -46 -109 -21 -50 -22 -51 -33
-30 -28 56 -82 179 -82 188 0 5 -9 9 -19 9 -19 0 -19 -2 -5 -37 9 -21 26 -60
39 -88 38 -83 56 -128 51 -132 -7 -8 -117 -9 -128 -2 -6 4 -12 44 -12 96 -2
92 -16 132 -57 153 -28 15 -92 12 -118 -6z m119 -34 c23 -23 22 -18 25 -127 3
-94 14 -85 -99 -84 -32 0 -60 2 -63 5 -9 8 -4 153 6 179 5 14 18 30 28 36 30
17 81 13 103 -9z m24 -322 c0 -81 -10 -103 -51 -119 -13 -5 -36 -6 -52 -3 -46
9 -65 61 -62 166 l1 38 83 -3 82 -2 -1 -77z"/>
</g>
</svg>
